<svg width="16" height="16" viewBox="0 0 16 16" fill="none" xmlns="http://www.w3.org/2000/svg">
<path d="M2 8.00002V10.5334C2 11.2801 2 11.6535 2.14532 11.9387C2.27316 12.1896 2.47713 12.3935 2.72801 12.5214C3.01323 12.6667 3.3866 12.6667 4.13333 12.6667H11.8667C12.6134 12.6667 12.9868 12.6667 13.272 12.5214C13.5229 12.3935 13.7268 12.1896 13.8547 11.9387C14 11.6535 14 11.2801 14 10.5334V8.00002M2 8.00002H4.44968C4.77579 8.00002 4.93886 8.00002 5.09231 8.03686C5.22836 8.06952 5.35842 8.1234 5.47771 8.1965C5.61227 8.27895 5.72758 8.39426 5.95817 8.62486L6.04183 8.70852C6.27243 8.93912 6.38773 9.05442 6.52229 9.13687C6.64158 9.20998 6.77164 9.26385 6.90769 9.29651C7.06114 9.33335 7.2242 9.33335 7.55032 9.33335H8.44968C8.7758 9.33335 8.93886 9.33335 9.09231 9.29651C9.22836 9.26385 9.35842 9.20998 9.47771 9.13687C9.61227 9.05442 9.72757 8.93912 9.95817 8.70851L10.0418 8.62486C10.2724 8.39427 10.3877 8.27895 10.5223 8.1965C10.6416 8.1234 10.7716 8.06952 10.9077 8.03686C11.0611 8.00002 11.2242 8.00002 11.5503 8.00002H14M2 8.00002L3.55093 4.55352C3.85835 3.87036 4.01207 3.52877 4.25351 3.27839C4.46694 3.05706 4.72852 2.88793 5.01794 2.78412C5.34534 2.66669 5.71992 2.66669 6.46907 2.66669H9.53092C10.2801 2.66669 10.6547 2.66669 10.9821 2.78412C11.2715 2.88793 11.5331 3.05706 11.7465 3.27839C11.9879 3.52877 12.1416 3.87035 12.4491 4.55352L14 8.00002" stroke="black" stroke-width="2" stroke-linecap="round" stroke-linejoin="round"/>
</svg>
