<svg width="14" height="12" viewBox="0 0 14 12" fill="none" xmlns="http://www.w3.org/2000/svg">
<path d="M4.33333 2.00046L13 2.00095M4.33333 6.0005L13 6.00102M4.33333 10.0005L13 10.001M1.33333 2.00002H1.34M1.33333 6.00002H1.34M1.33333 10H1.34M1.66667 2.00002C1.66667 2.18412 1.51743 2.33335 1.33333 2.33335C1.14924 2.33335 1 2.18412 1 2.00002C1 1.81593 1.14924 1.66669 1.33333 1.66669C1.51743 1.66669 1.66667 1.81593 1.66667 2.00002ZM1.66667 6.00002C1.66667 6.18411 1.51743 6.33335 1.33333 6.33335C1.14924 6.33335 1 6.18411 1 6.00002C1 5.81592 1.14924 5.66669 1.33333 5.66669C1.51743 5.66669 1.66667 5.81592 1.66667 6.00002ZM1.66667 10C1.66667 10.1841 1.51743 10.3334 1.33333 10.3334C1.14924 10.3334 1 10.1841 1 10C1 9.81592 1.14924 9.66669 1.33333 9.66669C1.51743 9.66669 1.66667 9.81592 1.66667 10Z" stroke="black" stroke-width="2" stroke-linecap="round" stroke-linejoin="round"/>
</svg>
